<?xml version="1.0" standalone="no"?>
<!DOCTYPE svg PUBLIC "-//W3C//DTD SVG 20010904//EN"
 "http://www.w3.org/TR/2001/REC-SVG-20010904/DTD/svg10.dtd">
<svg version="1.0" xmlns="http://www.w3.org/2000/svg"
 width="16.000000pt" height="16.000000pt" viewBox="0 0 16.000000 16.000000"
 preserveAspectRatio="xMidYMid meet">
<metadata>
Created by potrace 1.11, written by Peter Selinger 2001-2013
</metadata>
<g transform="translate(0.000000,16.000000) scale(0.002286,-0.002286)"
fill="#000000" stroke="none">
<path d="M3350 6976 c-99 -30 -151 -56 -232 -117 -192 -144 -379 -418 -521
-764 -42 -103 -150 -416 -161 -467 -9 -42 -48 -182 -52 -190 -2 -4 -17 -3 -32
2 -111 34 -397 101 -487 114 -11 2 -54 8 -95 15 -225 35 -432 44 -625 28 -197
-16 -375 -74 -508 -166 -108 -74 -200 -211 -229 -342 -15 -66 -17 -228 -3
-294 24 -119 56 -208 125 -350 125 -258 329 -528 637 -842 l101 -103 -91 -93
c-439 -445 -688 -829 -767 -1182 -19 -81 -21 -221 -4 -299 71 -345 399 -532
929 -530 274 1 583 47 917 138 126 34 135 34 143 -1 22 -98 116 -411 142 -473
3 -8 7 -19 9 -25 1 -5 25 -64 52 -130 61 -149 131 -289 188 -378 24 -37 44
-70 44 -72 0 -3 25 -37 55 -77 118 -154 226 -249 355 -314 96 -48 150 -59 280
-58 77 1 110 7 170 29 366 133 684 635 891 1405 17 63 33 118 35 121 2 4 36
-2 76 -13 40 -11 78 -21 83 -22 6 -2 30 -8 55 -15 25 -7 54 -15 65 -17 11 -2
67 -13 125 -25 110 -23 134 -27 188 -34 18 -2 45 -6 60 -9 195 -40 563 -40
745 0 266 58 436 170 529 350 46 89 60 147 62 264 10 372 -249 825 -780 1367
l-92 93 102 103 c119 122 234 249 290 321 22 28 43 53 46 56 3 3 26 32 51 65
188 245 329 526 370 735 40 207 0 406 -109 539 -211 260 -671 347 -1287 244
-16 -2 -41 -6 -55 -8 -14 -3 -36 -7 -50 -10 -14 -2 -61 -12 -104 -21 -74 -15
-190 -44 -313 -78 -29 -8 -55 -11 -57 -8 -2 4 -18 59 -35 122 -222 806 -539
1295 -920 1417 -79 25 -224 25 -311 -1z m315 -246 c237 -116 456 -463 630
-995 41 -122 108 -367 102 -370 -1 -1 -45 -17 -97 -35 -196 -68 -326 -122
-352 -147 -22 -21 -28 -36 -28 -71 0 -37 6 -50 35 -79 31 -31 39 -35 77 -30
36 4 275 86 385 133 l32 13 10 -52 c5 -29 12 -68 15 -87 3 -19 8 -44 10 -55
10 -52 36 -214 41 -250 2 -22 9 -80 15 -130 5 -49 13 -107 16 -128 l6 -38 -84
52 c-590 371 -1230 682 -1798 876 -41 14 -76 27 -78 28 -6 5 60 240 109 390
192 581 451 948 714 1010 81 20 150 10 240 -35z m-2175 -1354 c58 -3 114 -8
125 -10 11 -2 45 -7 75 -10 311 -38 833 -186 1240 -351 254 -103 310 -129 303
-136 -5 -3 -48 -28 -98 -54 -201 -106 -416 -230 -614 -354 l-84 -53 6 39 c3
21 9 65 12 98 4 33 15 116 24 185 19 133 16 157 -21 197 -24 25 -75 39 -107
28 -19 -6 -71 -50 -71 -59 0 -2 -4 -26 -10 -54 -5 -29 -12 -75 -15 -104 -3
-29 -8 -64 -10 -78 -2 -14 -6 -50 -10 -80 -4 -30 -8 -66 -10 -80 -2 -14 -7
-61 -11 -105 -7 -77 -11 -123 -13 -137 -1 -3 -34 -30 -73 -59 -283 -206 -411
-305 -600 -466 -47 -40 -90 -73 -96 -73 -18 0 -291 291 -398 423 -240 300
-384 571 -413 777 -27 204 47 350 223 434 110 53 239 81 392 85 43 1 80 4 81
5 2 1 17 1 35 0 18 -1 80 -5 138 -8z m4315 0 c122 -8 161 -15 249 -43 156 -48
246 -119 299 -233 25 -56 29 -76 29 -155 1 -142 -45 -286 -154 -482 -122 -219
-281 -421 -542 -690 l-119 -122 -46 40 c-173 152 -442 362 -628 492 -45 32
-85 62 -88 66 -6 11 -12 54 -20 146 -15 174 -42 373 -77 574 -16 97 -32 192
-35 212 l-4 35 78 18 c43 11 79 18 80 18 2 -1 21 5 44 13 23 9 51 17 63 19 12
3 41 9 66 14 153 33 153 33 282 52 42 6 86 13 97 15 11 2 73 7 138 11 65 3
119 7 120 8 3 2 37 1 168 -8z m-2191 -682 c278 -142 530 -286 811 -464 137
-88 158 -105 161 -132 21 -231 21 -1004 0 -1191 -4 -35 -4 -35 -106 -101 -259
-168 -600 -365 -847 -490 l-132 -67 -131 66 c-254 127 -599 327 -849 490 -97
64 -111 79 -109 125 0 8 -3 89 -7 180 -10 213 -10 534 -1 778 8 202 10 230 24
244 22 22 582 368 596 368 3 0 38 19 78 43 40 24 138 76 218 116 80 40 149 77
155 82 15 14 22 12 139 -47z m-1439 -1193 c0 -305 -3 -457 -10 -452 -5 5 -57
43 -115 87 -95 71 -238 183 -266 209 -6 5 -31 26 -55 46 -24 20 -63 52 -86 72
l-43 35 38 34 c51 45 87 75 152 128 30 25 57 47 60 51 4 4 135 104 253 193 26
19 72 55 72 56 0 0 0 -207 0 -459z m2780 360 c123 -92 444 -353 444 -361 0 -3
-35 -33 -77 -68 -43 -34 -89 -72 -102 -85 -32 -29 -182 -146 -290 -227 -47
-34 -89 -66 -95 -71 -7 -5 -10 147 -10 451 0 304 3 456 10 451 6 -4 60 -45
120 -90z m869 -781 c62 -69 134 -152 160 -185 26 -33 53 -67 60 -76 8 -9 45
-63 84 -120 331 -490 341 -846 27 -993 -95 -45 -159 -62 -320 -82 -43 -5 -290
-5 -355 1 -67 6 -138 15 -165 20 -11 3 -38 7 -60 10 -104 14 -176 29 -372 77
-172 42 -213 55 -213 69 0 14 17 113 35 199 3 14 8 43 10 65 3 22 9 63 15 90
5 28 12 75 16 105 3 30 8 62 9 70 2 8 6 44 10 80 3 36 8 76 10 90 2 14 6 57
10 95 12 125 16 159 18 160 22 7 349 250 497 369 120 97 152 123 229 193 l36
32 73 -72 c41 -40 124 -128 186 -197z m-4339 224 c160 -141 443 -363 622 -488
46 -32 85 -61 87 -64 5 -9 14 -68 21 -152 3 -36 8 -81 10 -100 2 -19 6 -55 9
-80 3 -25 8 -67 11 -95 3 -27 10 -75 15 -105 12 -68 17 -103 25 -158 3 -23 15
-89 26 -145 10 -56 19 -109 19 -117 0 -16 -85 -42 -295 -91 -99 -23 -101 -23
-165 -34 -25 -4 -54 -9 -65 -12 -168 -37 -590 -53 -725 -27 -242 46 -363 118
-426 251 -31 65 -36 90 -37 178 -1 213 148 519 412 845 95 118 129 156 285
317 60 62 114 113 120 113 6 -1 29 -17 51 -36z m1275 -909 c169 -100 214 -125
365 -205 55 -29 103 -56 107 -59 6 -6 -129 -66 -332 -148 -68 -28 -85 -41
-104 -77 -36 -72 12 -156 90 -156 83 0 770 313 1101 501 57 32 106 59 109 59
7 0 353 209 401 241 56 39 65 37 59 -8 -6 -41 -25 -190 -31 -238 -5 -37 -18
-128 -20 -135 -1 -3 -5 -30 -10 -60 -5 -30 -9 -57 -10 -60 -1 -3 -5 -30 -10
-60 -5 -30 -9 -57 -10 -60 -1 -3 -5 -21 -9 -42 l-8 -36 -46 18 c-153 60 -355
130 -378 130 -90 0 -138 -113 -76 -179 18 -20 64 -43 137 -71 61 -23 119 -46
130 -50 11 -5 56 -21 100 -36 44 -15 82 -28 83 -30 6 -5 -68 -264 -119 -417
-189 -563 -445 -922 -699 -981 -212 -50 -425 101 -622 439 -57 97 -137 266
-168 355 -13 36 -26 70 -30 75 -14 19 -109 332 -148 485 -50 193 -110 494
-127 635 -3 28 -8 57 -10 65 -2 8 -6 42 -10 75 -3 33 -7 71 -10 85 -2 14 -7
51 -10 83 l-6 58 83 -52 c46 -29 153 -94 238 -144z"/>
<path d="M3356 4185 c-37 -8 -109 -34 -160 -59 -150 -73 -247 -170 -322 -321
-24 -49 -51 -119 -58 -155 -15 -73 -14 -270 2 -310 5 -14 16 -45 23 -70 16
-55 72 -155 118 -213 81 -99 203 -181 341 -227 84 -28 246 -35 345 -13 225 47
430 223 508 433 64 173 58 384 -16 540 -27 58 -97 158 -143 204 -43 42 -172
136 -188 136 -4 0 -25 9 -49 19 -101 45 -279 61 -401 36z"/>
</g>
</svg>
